<svg version="1" xmlns="http://www.w3.org/2000/svg" width="259.848" height="261.863" viewBox="0 0 259.848 261.863"><path d="M252.263 118.576l-.936-.448-1.159-.555-1.299-.567c-2.009-.846-5.243-2.122-9.598-2.965-2.18-.467-4.686-.771-7.499-.937-2.813-.175-5.949-.144-9.391.142-3.438.286-7.178.798-11.181 1.583-4.003.812-8.269 1.875-12.76 3.203-17.992 5.333-39.458 14.891-63.184 27.682-2.978 1.576-5.972 3.255-9.025 4.926-2.986 1.698-6.176 3.492-9.233 5.278-3.095 1.782-6.226 3.632-9.399 5.513-3.142 1.926-6.327 3.877-9.517 5.9-6.408 4.003-12.833 8.319-19.285 12.853-6.447 4.539-12.91 9.323-19.25 14.429-6.302 5.139-12.531 10.55-18.343 16.384-2.877 2.94-5.7 5.932-8.32 9.068-2.633 3.126-5.026 6.411-7.225 9.766-2.204 3.358-4.073 6.867-5.602 10.5l-.146.34-.011-.003-.293.811c-.152.394-.056.236-.062.253l-.002.024-.039.111c-.013-.142-.114-.422-.212-.564-.099-.149-.15-.145-.016-.035.235.242 1.244.713 2.508.995 1.297.285 2.862.422 4.507.341 1.643-.061 3.369-.323 5.073-.741.215-.044.425-.115.638-.171l.319-.089.106-.017 1.705-.56c.326-.1.475-.167.672-.24l.577-.215.595-.221.672-.29c1.793-.76 3.621-1.654 5.429-2.708 1.816-1.025 3.616-2.212 5.402-3.483 3.593-2.521 7.115-5.432 10.53-8.606 3.42-3.168 6.764-6.567 9.973-10.171 3.227-3.591 6.353-7.359 9.36-11.276 6.032-7.825 11.614-16.207 16.957-24.87 2.681-4.328 5.322-8.717 7.932-13.159 2.58-4.459 5.132-8.966 7.656-13.52 10.076-18.227 19.621-37.202 29.019-56.565 9.355-19.421 18.823-39.078 28.367-58.892l3.606-7.441.903-1.862.114-.255c.102-.215.13-.299.059-.159l-.105.259c-.022.098-.094.352-.102.688-.02.396-.003.934.215 1.699.214.762.7 1.809 1.598 2.722.882.923 2.138 1.6 3.25 1.844 1.122.26 2.065.186 2.771.032.712-.16 1.22-.401 1.606-.639.748-.461 1.043-.884 1.203-1.114l.139-.265-.154.321-.218.47-.871 1.882-3.488 7.536c-4.686 10.042-9.386 20.113-14.095 30.205-4.734 10.082-9.496 20.179-14.107 30.302-4.601 10.129-9.365 20.261-13.659 30.467-2.203 5.091-4.363 10.199-6.424 15.389l-3.102 7.725c-1.016 2.602-2.043 5.214-2.989 7.761-1.922 5.128-3.842 10.318-5.513 15.542-1.664 5.233-3.12 10.525-4.247 15.855-1.179 5.302-2.097 10.677-2.738 15.807-.297 2.523-.578 5.149-.521 6.996l.012 1.912c.011.598.024 1.211.052 1.789.062 1.163.12 2.262.253 3.195.131.924.298 1.675.419 1.965.052.147.091.123.002-.013-.08-.138-.288-.435-.616-.725-.323-.293-.731-.537-.996-.645-.275-.106-.395-.109-.359-.093.02.022.252.036.52.047l.497-.011-.002.013.172-.022c-.438.078-.326.076-.357.081l.116-.03c.14-.045.406-.175.702-.338.605-.331 1.389-.877 2.191-1.51 1.626-1.282 3.348-2.961 5.066-4.713 3.44-3.552 6.769-7.612 10.005-11.764 3.266-4.145 6.429-8.446 9.529-12.803 6.238-8.698 12.231-17.627 18.081-26.597 11.713-17.946 22.624-36.207 32.98-54.378 5.196-9.08 9.572-18.501 14.084-27.735 4.436-9.275 8.7-18.527 12.886-27.694l12.447-27.177c2.089-4.457 4.166-8.886 6.23-13.287l3.146-6.55 1.462-3.051.111-.261-.153.382c-.055.184-.161.518-.204 1.109-.033.576-.019 1.483.431 2.655.423 1.161 1.432 2.457 2.571 3.192 1.142.76 2.274 1.037 3.193 1.103.941.061 1.752-.075 2.56-.364.803-.295 1.624-.78 2.376-1.561.383-.391.722-.853 1.01-1.364.426-.846.023-.032.064-.102l-1.51 3.25c-1.021 2.158-2.038 4.309-3.051 6.453l-6.214 12.707c-4.198 8.355-8.42 16.531-12.588 24.55-8.326 16.041-16.21 31.579-22.827 46.842-6.703 15.227-11.724 30.314-15.756 44.673-2.021 7.181-3.819 14.191-5.187 21.069-1.392 6.872-2.36 13.596-3.202 20.105-.183 1.632-.442 3.238-.605 4.845-.165 1.607-.361 3.195-.556 4.77l-.487 4.699c-.193 1.536-.249 2.632-.273 3.941-.042 2.52.187 5.017.637 6.835.21.916.503 1.595.664 1.916l.049.103c-.071-.091-.26-.265-.57-.437-.308-.198-.7-.343-1.033-.391-.286-.087-.549-.033-.572-.046l-.027.012-.21.03.267-.039.026-.008c-.147.02-.292.057-.429.109l.009.003c.061-.008.27-.072.56-.224.573-.28 1.363-.793 2.179-1.397.827-.601 1.689-1.309 2.545-2.063 1.71-1.516 3.41-3.208 5.062-4.916 1.646-1.717 3.228-3.488 4.775-5.232 6.148-7.042 11.411-13.861 15.793-19.903 4.39-6.053 7.935-11.368 10.733-15.717 2.798-4.351 4.885-7.721 6.246-10.008l2.042-3.472 9.974 5.281-1.854 3.754c-1.239 2.462-3.068 6.109-5.567 10.8-2.508 4.688-5.638 10.444-9.481 17.163-3.878 6.707-8.34 14.422-14.225 22.809-1.474 2.102-3.057 4.231-4.795 6.396-1.729 2.174-3.612 4.367-5.813 6.58-2.238 2.216-4.595 4.489-8.345 6.678-.94.543-2.023 1.082-3.303 1.564l-1.006.349c-.484.142-.975.269-1.47.379l-.501.104-.265.05c-.302.045.3-.031-.743.114l-.566.05c-1.46.152-3.182.072-4.904-.25-1.759-.364-3.53-1.04-5.113-1.981-1.565-.95-2.878-2.105-3.948-3.299-1.049-1.193-1.842-2.396-2.508-3.576-1.262-2.329-2.008-4.529-2.521-6.591-1.014-4.143-1.274-7.929-1.254-11.765.011-1.873.153-3.986.339-5.667l.573-5.046c.438-3.388.983-6.821 1.628-10.294 1.296-6.944 3.058-14.024 5.066-21.221 2.028-7.193 4.295-14.518 6.976-21.877 5.359-14.735 12.313-29.516 19.144-44.966 6.916-15.421 14.061-31.423 21.327-47.999 3.631-8.289 7.353-16.69 11.177-25.19l5.862-12.788 3.014-6.453 1.533-3.239c.172-.338-.119.197.456-.909.427-.776.956-1.473 1.539-2.086 1.17-1.211 2.512-2.02 3.876-2.525 1.369-.502 2.788-.719 4.326-.621 1.518.1 3.241.561 4.885 1.652 1.648 1.058 3.037 2.856 3.678 4.575.67 1.733.743 3.253.672 4.426-.08 1.191-.311 2.119-.554 2.874-.113.368-.282.811-.461 1.231l-.258.564-1.743 3.443-3.311 6.494-6.865 13.023c-4.679 8.699-9.519 17.452-14.478 26.266l-15.059 26.7c-4.983 9.034-10.283 18.007-14.973 27.409-9.433 18.779-19.077 37.863-29.33 57.049-5.149 9.584-10.511 19.157-16.308 28.649-2.926 4.731-5.963 9.439-9.194 14.117-3.275 4.657-6.724 9.26-10.735 13.809-2.018 2.282-4.198 4.51-6.837 6.724-1.336 1.104-2.773 2.206-4.549 3.272-.895.531-1.849 1.054-2.984 1.538-.573.241-1.165.472-1.827.682-.688.212-1.246.384-2.364.583-.645.11-.652.1-.852.13-.057.017-1.109.112-1.034.1-.494.044-1.032.066-1.572.08-1.111.013-2.266-.006-3.612-.201-1.329-.191-2.8-.528-4.351-1.166-1.54-.638-3.147-1.611-4.495-2.834-1.356-1.217-2.422-2.62-3.194-3.954-.779-1.334-1.294-2.635-1.663-3.806-.717-2.349-.999-4.349-1.126-6.18-.119-1.826-.135-3.5-.057-5.109.034-.808.085-1.581.142-2.369l.098-1.2.115-1.043c.091-.85.226-1.759.347-2.631l.465-2.388c.346-1.516.698-3.02 1.115-4.444 1.582-5.758 3.548-11.136 5.471-16.526l5.87-16.008 2.861-7.993c.981-2.653 1.941-5.306 2.971-7.965 1.01-2.683 2.039-5.264 3.065-7.861l3.093-7.849c1.039-2.605 2.02-5.217 3.107-7.816l3.214-7.808 3.184-7.822c1.061-2.608 2.186-5.163 3.275-7.748 2.172-5.166 4.343-10.33 6.514-15.492 4.295-10.359 8.677-20.615 13.048-30.856 4.389-10.234 8.769-20.449 13.136-30.633l3.297-7.622.823-1.904.483-1.097c.319-.681.685-1.367 1.16-2.066.926-1.378 2.209-2.812 4.139-3.991.983-.584 2.133-1.099 3.52-1.408 1.378-.303 3.029-.398 4.824.024 1.783.403 3.667 1.428 5.029 2.847 1.38 1.408 2.203 3.081 2.605 4.507.403 1.431.471 2.663.436 3.749-.057 1.023-.216 1.965-.419 2.729-.217.839-.408 1.391-.752 2.222-.193.463-.306.694-.355.788l-.335.676-.954 1.832-3.811 7.322c-20.266 39.046-40.528 77.444-61.329 114.137-2.607 4.585-5.246 9.131-7.918 13.636-2.645 4.521-5.325 9.001-8.055 13.43-5.487 8.844-11.099 17.523-16.895 26.042-2.91 4.252-5.865 8.467-8.944 12.605-3.105 4.117-6.31 8.177-9.749 12.089-6.88 7.785-14.627 15.223-24.767 20.519-1.152.625-2.852 1.354-4.086 1.879l-1.669.658-.747.255-.536.176c-.359.114-.713.24-1.078.338-2.894.839-5.866 1.458-8.954 1.669-3.08.23-6.265.121-9.584-.504-3.316-.696-6.833-1.829-10.338-4.415-1.728-1.289-3.429-2.979-4.772-5.093-1.346-2.102-2.262-4.605-2.608-7.037-.359-2.435-.21-4.776.212-6.779.08-.491.246-1.094.402-1.656.15-.537.373-1.258.436-1.4l.293-.811c.319-.843.199-.494.32-.799l.193-.452c2.032-4.838 4.485-9.396 7.236-13.597 2.733-4.221 5.802-8.065 8.947-11.683 3.161-3.609 6.434-6.981 9.814-10.117 3.37-3.146 6.811-6.078 10.258-8.898 3.458-2.811 6.969-5.422 10.448-7.986 13.974-10.144 27.952-18.578 41.268-26.424 3.327-1.967 6.637-3.852 9.899-5.717 3.251-1.875 6.462-3.721 9.661-5.513 6.344-3.557 12.54-6.985 18.591-10.274 24.193-13.103 46.088-23.455 65.436-29.9 4.844-1.591 9.517-2.955 14.016-4.046 4.51-1.065 8.838-1.874 12.954-2.397 8.223-1.097 15.62-.905 21.584-.107 2.984.399 5.615.941 7.851 1.522 1.12.285 2.152.552 3.074.847.926.279 1.76.529 2.555.821l2.027.722 1.201.458.97.37-7.587 17.693z"/></svg>