<svg xmlns="http://www.w3.org/2000/svg" width="259.848" height="261.863" viewBox="0 0 259.848 261.863"><path class="sigpath" d="M252.263 118.576l-.936-.448-1.16-.555-1.298-.567c-2.01-.846-5.244-2.122-9.6-2.965-2.18-.466-4.685-.77-7.498-.936-2.813-.175-5.95-.144-9.39.142-3.44.286-7.18.798-11.182 1.583-4.003.81-8.27 1.874-12.76 3.202-17.992 5.333-39.458 14.89-63.184 27.682-2.978 1.576-5.972 3.255-9.025 4.926-2.985 1.698-6.175 3.492-9.232 5.278-3.095 1.782-6.226 3.632-9.4 5.513-3.14 1.927-6.326 3.878-9.516 5.9-6.408 4.004-12.833 8.32-19.285 12.854-6.447 4.54-12.91 9.323-19.25 14.43-6.302 5.138-12.53 10.55-18.343 16.383-2.877 2.94-5.7 5.932-8.32 9.068-2.633 3.126-5.026 6.41-7.225 9.766-2.205 3.36-4.074 6.868-5.603 10.5l-.146.34-.01-.002-.293.81c-.152.395-.056.237-.062.254l-.002.024-.04.11c-.012-.14-.113-.42-.21-.563-.1-.15-.15-.145-.017-.035.235.242 1.244.713 2.508.995 1.297.285 2.862.422 4.507.34 1.644-.06 3.37-.322 5.074-.74.215-.044.425-.115.638-.17l.32-.09.105-.017 1.705-.56c.326-.1.475-.167.672-.24l.577-.215.596-.22.672-.29c1.793-.76 3.62-1.654 5.43-2.708 1.815-1.025 3.615-2.212 5.4-3.483 3.594-2.522 7.116-5.433 10.53-8.607 3.42-3.168 6.765-6.567 9.974-10.17 3.227-3.592 6.353-7.36 9.36-11.277 6.032-7.825 11.614-16.207 16.957-24.87 2.68-4.328 5.32-8.717 7.93-13.16 2.58-4.458 5.133-8.965 7.657-13.52 10.076-18.226 19.62-37.2 29.02-56.564l28.366-58.892 3.606-7.44.902-1.863.114-.255c.102-.215.13-.3.06-.16l-.106.26c-.022.098-.094.352-.102.688-.02.396-.003.934.215 1.7.214.76.7 1.808 1.598 2.72.883.924 2.14 1.6 3.25 1.845 1.123.26 2.066.186 2.772.032.712-.16 1.22-.4 1.606-.64.748-.46 1.043-.883 1.203-1.113l.14-.265-.154.32-.218.47-.87 1.882-3.49 7.536-14.094 30.205c-4.734 10.082-9.496 20.18-14.107 30.302-4.6 10.13-9.365 20.26-13.66 30.467-2.202 5.09-4.362 10.2-6.423 15.39l-3.102 7.724c-1.016 2.602-2.043 5.214-2.99 7.76-1.92 5.13-3.84 10.32-5.512 15.543-1.664 5.232-3.12 10.524-4.247 15.854-1.18 5.302-2.097 10.677-2.738 15.807-.297 2.524-.578 5.15-.52 6.997l.01 1.912c.012.597.025 1.21.053 1.788.062 1.163.12 2.262.253 3.195.132.924.3 1.675.42 1.965.052.147.09.123.002-.013-.08-.138-.288-.435-.616-.725-.323-.293-.73-.537-.996-.645-.275-.106-.395-.11-.36-.093.02.022.253.036.52.047l.498-.012-.002.013.172-.02c-.438.077-.326.075-.357.08l.117-.03c.14-.045.406-.175.702-.338.604-.33 1.388-.877 2.19-1.51 1.626-1.282 3.348-2.96 5.066-4.713 3.44-3.553 6.77-7.613 10.005-11.765 3.267-4.145 6.43-8.446 9.53-12.803 6.238-8.698 12.23-17.627 18.08-26.597 11.714-17.946 22.625-36.207 32.98-54.378 5.197-9.08 9.573-18.5 14.085-27.735 4.436-9.275 8.7-18.527 12.886-27.694L228.09 31.33l6.23-13.286 3.146-6.55 1.462-3.05.11-.262-.152.382c-.055.184-.16.518-.204 1.11-.033.575-.02 1.482.43 2.654.424 1.16 1.433 2.457 2.572 3.192 1.142.76 2.274 1.037 3.193 1.103.94.06 1.752-.075 2.56-.364.803-.296 1.624-.78 2.376-1.562.384-.39.723-.853 1.01-1.364.427-.846.024-.032.065-.102l-1.51 3.25-3.05 6.453-6.215 12.707c-4.198 8.355-8.42 16.53-12.588 24.55-8.326 16.04-16.21 31.58-22.827 46.842-6.703 15.227-11.724 30.314-15.756 44.673-2.022 7.18-3.82 14.19-5.188 21.07-1.392 6.87-2.36 13.595-3.202 20.104-.183 1.633-.442 3.24-.605 4.846-.165 1.607-.36 3.195-.556 4.77l-.488 4.7c-.193 1.535-.25 2.63-.273 3.94-.043 2.52.186 5.017.636 6.835.21.917.503 1.596.664 1.917l.05.103c-.072-.09-.26-.265-.57-.437-.31-.198-.7-.343-1.034-.39-.286-.088-.55-.034-.572-.047l-.027.012-.21.03.267-.04.026-.007c-.147.02-.292.058-.43.11l.01.003c.06-.008.27-.072.56-.224.573-.28 1.363-.794 2.18-1.398.826-.6 1.688-1.31 2.544-2.063 1.71-1.517 3.41-3.21 5.062-4.917 1.646-1.717 3.228-3.488 4.775-5.232 6.15-7.04 11.412-13.86 15.794-19.902 4.39-6.053 7.935-11.368 10.733-15.717 2.798-4.35 4.885-7.72 6.246-10.007l2.042-3.472 9.974 5.282-1.855 3.754c-1.24 2.462-3.068 6.11-5.567 10.8-2.508 4.688-5.638 10.444-9.48 17.163-3.88 6.706-8.34 14.42-14.226 22.808-1.474 2.102-3.057 4.23-4.795 6.396-1.73 2.174-3.612 4.367-5.813 6.58-2.238 2.216-4.595 4.49-8.345 6.678-.94.543-2.024 1.082-3.304 1.564l-1.006.35c-.484.14-.975.268-1.47.378l-.5.104-.266.05c-.302.045.3-.03-.743.114l-.565.05c-1.46.152-3.182.072-4.904-.25-1.758-.364-3.53-1.04-5.112-1.98-1.565-.95-2.878-2.106-3.948-3.3-1.05-1.193-1.842-2.396-2.508-3.576-1.262-2.33-2.008-4.53-2.52-6.59-1.015-4.144-1.275-7.93-1.255-11.766.01-1.873.153-3.986.34-5.667l.572-5.046c.437-3.388.982-6.82 1.627-10.294 1.296-6.944 3.058-14.024 5.066-21.22 2.028-7.194 4.295-14.52 6.976-21.878 5.358-14.735 12.312-29.516 19.143-44.966 6.916-15.422 14.06-31.424 21.327-48 3.63-8.29 7.353-16.69 11.177-25.19l5.862-12.788 3.013-6.453 1.533-3.24c.172-.338-.12.197.456-.91.427-.775.956-1.472 1.54-2.085 1.17-1.21 2.51-2.02 3.875-2.525 1.37-.502 2.788-.72 4.326-.62 1.518.1 3.24.56 4.885 1.65 1.648 1.06 3.037 2.857 3.678 4.576.67 1.733.743 3.253.672 4.426-.08 1.19-.31 2.12-.554 2.874-.113.368-.282.81-.46 1.23l-.26.565-1.742 3.444-3.31 6.494-6.866 13.023c-4.68 8.7-9.52 17.453-14.478 26.267l-15.06 26.7c-4.982 9.034-10.282 18.007-14.972 27.41-9.433 18.778-19.077 37.862-29.33 57.048-5.15 9.584-10.51 19.157-16.308 28.65-2.926 4.73-5.963 9.438-9.194 14.116-3.275 4.658-6.724 9.26-10.735 13.81-2.02 2.282-4.2 4.51-6.838 6.724-1.336 1.104-2.773 2.206-4.55 3.272-.894.53-1.848 1.054-2.983 1.538-.574.24-1.166.472-1.828.682-.688.212-1.246.384-2.364.583-.645.11-.652.1-.852.13-.057.016-1.11.11-1.034.1-.494.043-1.032.065-1.572.08-1.11.012-2.266-.007-3.612-.202-1.33-.19-2.8-.528-4.35-1.166-1.54-.638-3.148-1.61-4.496-2.834-1.356-1.217-2.422-2.62-3.194-3.954-.78-1.334-1.294-2.635-1.663-3.806-.717-2.35-1-4.35-1.126-6.18-.12-1.826-.136-3.5-.058-5.11.034-.807.085-1.58.142-2.368l.098-1.2.115-1.043c.09-.85.226-1.76.347-2.63l.465-2.39c.345-1.515.697-3.02 1.114-4.443 1.582-5.758 3.548-11.136 5.47-16.526l5.87-16.008 2.862-7.993c.98-2.653 1.94-5.306 2.97-7.965 1.01-2.683 2.04-5.264 3.066-7.86l3.093-7.85c1.04-2.605 2.02-5.217 3.107-7.816l3.214-7.808 3.184-7.822c1.06-2.608 2.186-5.163 3.275-7.748l6.514-15.492c4.294-10.36 8.676-20.615 13.047-30.856 4.39-10.234 8.77-20.45 13.136-30.633l3.297-7.622.823-1.904.483-1.096c.32-.68.685-1.367 1.16-2.066.926-1.378 2.21-2.812 4.14-3.99.982-.585 2.132-1.1 3.52-1.41 1.377-.302 3.028-.397 4.823.025 1.782.403 3.666 1.428 5.028 2.847 1.38 1.408 2.203 3.08 2.605 4.507.403 1.43.47 2.663.436 3.75-.058 1.022-.217 1.964-.42 2.728-.217.84-.408 1.39-.752 2.222-.193.463-.306.694-.355.788l-.335.676-.954 1.833-3.81 7.322c-20.267 39.046-40.53 77.444-61.33 114.137-2.607 4.585-5.246 9.13-7.918 13.636-2.645 4.52-5.325 9-8.055 13.43-5.486 8.844-11.098 17.523-16.894 26.042-2.91 4.252-5.865 8.467-8.944 12.605-3.105 4.117-6.31 8.177-9.75 12.09-6.88 7.784-14.626 15.222-24.766 20.518-1.152.625-2.852 1.354-4.086 1.88l-1.67.657-.746.255-.536.176c-.36.115-.713.24-1.078.34-2.894.838-5.866 1.457-8.954 1.668-3.08.23-6.265.12-9.584-.504-3.316-.696-6.833-1.83-10.338-4.415-1.728-1.29-3.43-2.98-4.772-5.094C1.466 249.634.55 247.13.204 244.7c-.36-2.436-.21-4.777.212-6.78.08-.49.246-1.094.402-1.656.15-.537.373-1.258.436-1.4l.293-.81c.32-.844.2-.495.32-.8l.193-.452c2.032-4.838 4.485-9.396 7.236-13.597 2.733-4.22 5.802-8.065 8.947-11.683 3.16-3.61 6.434-6.98 9.814-10.117 3.37-3.146 6.81-6.078 10.258-8.898 3.458-2.81 6.97-5.422 10.448-7.986 13.974-10.143 27.952-18.577 41.268-26.423 3.328-1.967 6.638-3.852 9.9-5.717 3.25-1.875 6.462-3.72 9.66-5.513 6.345-3.557 12.54-6.985 18.592-10.274 24.193-13.103 46.088-23.455 65.436-29.9 4.844-1.59 9.517-2.955 14.016-4.046 4.51-1.065 8.838-1.874 12.954-2.397 8.223-1.097 15.62-.905 21.584-.107 2.984.4 5.615.94 7.85 1.522 1.12.285 2.153.552 3.075.847.926.28 1.76.53 2.555.82l2.027.723 1.2.458.97.37-7.587 17.693z"/></svg>